<?xml version="1.0" standalone="no"?>
<!DOCTYPE svg PUBLIC "-//W3C//DTD SVG 20010904//EN"
 "http://www.w3.org/TR/2001/REC-SVG-20010904/DTD/svg10.dtd">
<svg version="1.0" xmlns="http://www.w3.org/2000/svg"
 width="1024.000000pt" height="1024.000000pt" viewBox="0 0 1024.000000 1024.000000"
 preserveAspectRatio="xMidYMid meet">
<metadata>
Created by potrace 1.14, written by Peter Selinger 2001-2017
</metadata>
<g transform="translate(0.000000,1024.000000) scale(0.100000,-0.100000)"
fill="#000000" stroke="none">
<path d="M6006 9979 c2 -4 -6 -9 -18 -11 -13 -2 -22 -9 -21 -15 2 -7 -6 -14
-16 -18 -11 -3 -22 -13 -25 -21 -3 -8 -10 -12 -16 -9 -6 4 -7 -1 -3 -11 4 -11
3 -15 -5 -10 -6 3 -14 -3 -18 -16 -13 -38 -13 -48 -1 -42 7 3 4 -1 -7 -10 -11
-9 -16 -22 -12 -31 3 -9 2 -14 -3 -11 -11 7 -23 -22 -15 -35 3 -5 -2 -9 -11
-9 -9 0 -13 -4 -10 -10 3 -5 1 -10 -5 -10 -6 0 -8 -5 -5 -10 4 -6 1 -9 -7 -8
-7 2 -12 -5 -12 -14 1 -11 -5 -18 -15 -18 -14 0 -14 -2 -1 -10 13 -8 12 -10
-3 -10 -15 0 -16 -3 -6 -22 11 -20 10 -21 -3 -11 -12 10 -15 10 -15 -2 0 -8 5
-15 11 -15 6 0 6 -4 -1 -11 -14 -14 -5 -41 11 -32 6 4 -9 -13 -33 -36 -26 -26
-39 -47 -34 -52 15 -15 3 -68 -17 -74 -12 -4 -17 -13 -15 -26 2 -11 0 -17 -6
-14 -9 6 -13 -7 -9 -39 1 -10 -3 -15 -8 -12 -5 3 -12 -3 -15 -14 -3 -10 0 -21
7 -24 6 -2 0 -5 -13 -5 -16 -1 -21 -6 -18 -15 3 -8 -1 -17 -9 -20 -8 -3 -14
-15 -14 -27 0 -18 -2 -19 -15 -9 -13 11 -14 10 -9 -5 5 -13 4 -16 -4 -11 -7 4
-12 2 -12 -5 0 -13 -46 -59 -53 -53 -2 2 -4 -3 -4 -11 0 -8 4 -12 9 -9 4 3 5
-2 2 -10 -3 -9 -10 -14 -14 -11 -4 3 -10 -5 -13 -16 -3 -12 -10 -18 -17 -14
-6 3 -9 2 -8 -3 2 -5 -8 -19 -21 -31 -13 -12 -19 -21 -12 -21 7 0 9 -5 6 -10
-4 -6 -10 -8 -14 -6 -4 3 -18 -15 -30 -40 -28 -55 -66 -98 -80 -89 -13 7 -3
-23 13 -44 9 -12 8 -12 -10 -3 -19 10 -21 9 -16 -13 3 -20 -2 -28 -27 -42 -17
-10 -31 -21 -31 -25 0 -10 -40 -50 -40 -40 0 4 -6 -4 -13 -18 -7 -14 -21 -24
-30 -24 -9 1 -17 -4 -17 -12 0 -7 -5 -16 -12 -20 -8 -5 -9 -2 -5 9 5 13 2 15
-16 8 -12 -5 -26 -10 -32 -12 -5 -2 -9 -8 -7 -14 2 -5 -2 -5 -9 2 -10 10 -15
9 -25 -5 -9 -11 -13 -13 -14 -4 0 8 -5 10 -12 6 -22 -14 -68 -11 -68 3 0 8 -5
11 -10 8 -6 -4 -8 -10 -6 -14 3 -4 -2 -8 -10 -8 -9 0 -13 6 -9 16 3 11 0 10
-10 -3 -13 -17 -19 -15 -17 5 1 4 -9 4 -21 1 -19 -5 -20 -3 -9 10 10 13 10 18
1 24 -8 4 -9 3 -5 -4 5 -8 1 -10 -10 -5 -15 6 -15 7 1 15 15 9 15 11 -2 23
-17 13 -16 14 7 9 14 -2 19 -2 13 2 -7 3 -13 13 -13 22 0 10 -7 26 -15 36 -8
10 -12 23 -8 29 4 6 1 7 -7 2 -10 -6 -12 -4 -7 8 3 9 3 16 -1 16 -19 -3 -23 2
-12 16 12 15 4 20 -22 16 -5 0 -8 3 -8 9 0 5 4 10 8 10 5 0 7 15 6 33 -2 46
-2 47 -19 47 -8 0 -15 7 -15 16 0 9 -5 12 -12 8 -7 -4 -10 -4 -6 1 4 4 3 16
-2 25 -7 13 -5 20 6 24 11 4 13 10 6 19 -5 6 -8 20 -7 30 2 9 -1 15 -6 11 -5
-3 -6 -10 -3 -16 4 -7 2 -8 -4 -4 -6 4 -8 14 -5 22 3 9 -5 29 -17 46 -12 17
-16 28 -9 24 8 -4 6 -1 -3 7 -10 8 -19 26 -20 41 -1 14 -6 26 -10 26 -4 0 -8
9 -8 20 0 10 -8 24 -17 30 -16 10 -16 11 2 6 17 -5 16 -3 -5 15 -14 12 -24 23
-22 25 7 12 0 24 -10 19 -7 -4 -5 0 4 7 11 9 14 19 8 28 -5 8 -6 18 -4 22 3 4
0 8 -5 8 -6 0 -11 7 -11 16 0 9 -5 12 -12 8 -8 -5 -7 0 2 11 13 17 13 18 -1
13 -13 -5 -16 -2 -12 15 4 18 3 19 -6 7 -8 -12 -11 -8 -11 18 0 24 -4 32 -18
32 -16 0 -63 42 -59 52 1 2 -2 0 -7 -4 -5 -4 -17 3 -28 15 -11 12 -17 15 -13
7 4 -8 -1 -6 -9 4 -16 20 -16 20 -16 0 0 -16 -2 -17 -10 -4 -9 13 -10 13 -10
0 0 -13 -1 -13 -10 0 -9 13 -10 13 -10 0 0 -9 -3 -11 -8 -5 -8 12 -63 15 -56
3 3 -4 -2 -8 -11 -8 -9 0 -14 -4 -11 -8 2 -4 -4 -8 -15 -8 -10 0 -19 5 -19 11
0 5 -5 2 -11 -8 -6 -9 -14 -15 -20 -12 -5 4 -12 -1 -15 -9 -3 -9 -10 -16 -16
-16 -5 0 -6 6 -2 13 5 7 0 6 -11 -3 -10 -8 -16 -10 -12 -3 4 6 3 14 -3 18 -5
3 -10 -1 -10 -10 0 -9 -5 -13 -11 -10 -14 9 -51 -26 -44 -42 2 -8 1 -12 -4 -9
-14 9 -54 -31 -45 -45 5 -9 2 -10 -10 -6 -10 4 -15 3 -11 -3 3 -6 13 -10 22
-10 13 0 13 -3 3 -15 -10 -12 -9 -15 6 -15 17 0 17 -1 -2 -15 -18 -13 -18 -14
-1 -15 10 0 15 -4 12 -10 -3 -5 -1 -10 5 -10 6 0 9 -4 6 -9 -3 -5 2 -12 12
-16 16 -6 16 -7 -1 -20 -15 -11 -15 -13 -2 -18 8 -4 12 -13 9 -22 -4 -9 -3
-15 2 -14 21 4 24 -2 9 -18 -16 -15 -16 -18 -1 -28 12 -9 13 -14 3 -25 -7 -7
-7 -10 -2 -7 6 3 17 2 25 -4 10 -5 11 -9 3 -9 -7 0 -1 -11 13 -25 25 -25 25
-27 9 -52 -9 -14 -13 -23 -7 -19 5 3 13 -1 16 -10 3 -8 2 -13 -2 -10 -4 3 -14
-4 -21 -16 -7 -11 -8 -17 -2 -14 12 8 30 -24 24 -42 -3 -6 -10 -10 -16 -6 -7
3 -5 0 4 -8 9 -7 14 -19 11 -27 -3 -8 0 -11 6 -8 5 4 12 -3 15 -14 4 -15 2
-19 -8 -15 -9 3 -12 0 -8 -9 3 -8 9 -12 14 -9 5 3 5 -6 0 -19 -6 -14 -8 -27
-6 -29 2 -2 6 -16 9 -32 4 -23 2 -27 -11 -21 -14 5 -13 2 3 -16 10 -12 13 -19
7 -15 -7 4 -13 3 -13 -1 0 -5 6 -15 13 -22 10 -11 9 -13 -5 -8 -15 5 -16 3 -6
-18 6 -14 15 -25 20 -25 5 0 6 -4 3 -10 -3 -5 -1 -10 5 -10 6 0 8 -5 5 -10 -4
-6 -12 -7 -18 -3 -7 4 -5 -2 3 -12 14 -17 13 -18 -4 -12 -16 6 -17 5 -7 -7 9
-11 9 -16 0 -22 -8 -5 -9 -3 -4 6 5 9 4 11 -3 6 -18 -11 -14 -26 6 -27 10 0
12 -3 4 -6 -6 -2 -10 -9 -6 -14 3 -5 0 -9 -6 -9 -6 0 -9 -4 -6 -9 3 -5 -1 -14
-9 -21 -13 -11 -14 -10 -9 4 4 11 2 16 -7 14 -8 -2 -13 3 -11 11 3 12 0 12
-12 1 -13 -10 -16 -10 -16 0 0 8 -3 10 -6 7 -4 -3 -15 -2 -25 4 -14 7 -19 6
-19 -3 0 -10 -2 -10 -9 1 -7 11 -9 11 -14 0 -4 -10 -6 -8 -6 4 -1 10 -5 16
-10 13 -4 -3 -19 3 -31 14 -28 24 -37 26 -19 3 13 -15 12 -15 -8 -3 -12 8 -20
17 -17 21 2 4 -4 6 -13 4 -10 -2 -22 -4 -26 -4 -5 -1 -5 -7 -1 -13 4 -7 -3 -4
-16 7 -20 17 -22 17 -17 3 4 -12 2 -15 -8 -11 -8 3 -13 8 -11 12 3 4 -6 7 -20
7 -18 0 -23 -4 -19 -15 5 -12 3 -13 -6 -4 -6 6 -18 9 -27 6 -11 -5 -13 -3 -7
8 8 12 6 12 -8 0 -9 -7 -17 -10 -17 -6 0 4 -7 2 -15 -5 -13 -11 -14 -10 -10 3
4 8 1 18 -6 23 -8 5 -10 3 -4 -6 6 -10 4 -12 -10 -6 -15 5 -16 4 -5 -9 11 -13
10 -14 -4 -9 -9 3 -16 11 -16 18 0 6 -5 4 -10 -4 -9 -13 -10 -13 -11 0 -1 8
-1 18 0 22 0 4 -9 4 -22 -1 -12 -4 -34 -6 -49 -5 -15 2 -31 -2 -34 -8 -4 -7
-2 -8 4 -4 7 4 12 2 12 -3 0 -15 -13 -14 -29 2 -11 10 -13 9 -8 -5 4 -12 2
-15 -8 -11 -8 3 -13 9 -10 13 8 13 -21 6 -39 -9 -14 -12 -16 -11 -10 5 4 12
-5 6 -24 -15 -19 -21 -37 -31 -46 -28 -9 4 -15 3 -13 -1 1 -4 -16 -25 -38 -47
-21 -22 -35 -33 -30 -25 7 12 6 13 -6 3 -12 -10 -18 -10 -29 0 -10 10 -12 9
-7 -5 4 -12 2 -15 -9 -11 -7 3 -14 9 -14 15 0 5 -4 6 -10 3 -5 -3 -10 -1 -10
5 0 7 -8 9 -20 5 -15 -5 -20 -2 -21 12 0 14 -2 15 -7 3 -9 -20 -36 -26 -29 -6
4 11 0 14 -14 11 -15 -3 -19 0 -15 10 7 20 -4 19 -21 -2 -14 -17 -14 -17 -8 1
6 19 5 19 -14 2 -18 -17 -21 -17 -27 -3 -3 9 -12 13 -20 10 -18 -7 -46 16 -37
30 3 6 1 7 -6 3 -6 -4 -9 -12 -6 -17 4 -5 1 -9 -4 -9 -6 0 -11 3 -11 8 0 13
-75 8 -86 -6 -8 -11 -13 -10 -25 5 -13 17 -13 17 6 3 19 -14 19 -14 6 3 -8 10
-20 16 -28 13 -8 -3 -13 2 -13 12 0 14 -2 15 -9 2 -6 -8 -7 -19 -3 -25 3 -5
-2 -4 -11 4 -19 15 -23 26 -5 15 7 -4 8 -3 4 4 -4 6 -13 9 -21 5 -8 -3 -15 0
-15 7 0 6 -5 8 -10 5 -6 -4 -8 -10 -5 -15 3 -5 0 -12 -6 -16 -7 -4 -9 -3 -6 3
4 6 0 13 -8 16 -9 4 -12 1 -9 -7 3 -8 0 -17 -7 -22 -8 -4 -10 -3 -5 4 4 7 2
12 -5 12 -6 0 -18 8 -26 18 -9 10 -11 11 -7 2 5 -10 -1 -8 -16 5 -20 17 -22
17 -17 3 4 -12 2 -15 -8 -11 -8 3 -12 10 -8 17 3 6 1 6 -8 -1 -7 -7 -17 -13
-22 -13 -4 0 -5 6 -1 13 5 9 4 9 -6 0 -11 -10 -16 -9 -27 5 -11 15 -12 15 -7
1 7 -22 -14 -35 -22 -14 -6 13 -8 14 -15 3 -5 -7 -9 -8 -9 -2 0 6 -7 11 -15
11 -11 0 -12 -4 -3 -14 8 -11 7 -12 -6 -7 -9 3 -16 10 -16 15 0 5 -7 9 -16 9
-9 0 -12 5 -8 13 5 7 0 6 -11 -3 -11 -9 -16 -10 -11 -2 9 15 -6 16 -22 0 -9
-9 -12 -9 -12 3 0 12 -2 12 -10 -1 -5 -8 -10 -10 -10 -4 0 7 -7 15 -16 18 -10
4 -13 2 -8 -6 5 -7 2 -9 -8 -5 -9 3 -20 1 -25 -4 -5 -5 -20 -3 -36 6 -15 8
-25 10 -22 5 3 -5 1 -11 -5 -15 -5 -3 -10 -1 -10 5 0 7 -5 8 -13 3 -17 -11
-31 -10 -39 2 -5 6 -8 3 -8 -7 0 -9 -5 -20 -12 -24 -7 -4 -8 -3 -4 4 4 7 2 12
-3 12 -6 0 -11 -5 -11 -11 0 -6 -7 -9 -15 -6 -8 4 -17 1 -21 -5 -5 -7 -12 -5
-21 7 -9 14 -13 15 -13 4 0 -12 -2 -12 -10 1 -8 12 -10 12 -11 -5 l0 -20 -9
20 c-6 13 -9 15 -9 5 -1 -13 -2 -13 -11 0 -7 11 -10 11 -10 2 0 -9 -5 -10 -19
-3 -15 9 -18 7 -17 -7 1 -11 -5 -16 -16 -14 -10 2 -18 -3 -19 -10 0 -7 -4 -4
-9 7 -8 19 -9 19 -9 -2 -1 -13 -5 -23 -11 -23 -5 0 -8 6 -6 13 1 6 1 9 -1 5
-3 -4 -21 -10 -41 -14 -20 -4 -43 -16 -50 -26 -12 -16 -16 -17 -30 -6 -14 11
-15 10 -8 -7 4 -11 4 -16 0 -12 -4 4 -14 1 -22 -6 -13 -10 -14 -9 -7 2 6 10 4
12 -4 7 -7 -5 -10 -15 -6 -23 4 -13 3 -14 -10 -3 -9 8 -15 8 -15 2 0 -6 -9 -9
-19 -7 -15 3 -18 -1 -14 -12 4 -11 2 -14 -5 -9 -7 4 -12 2 -12 -3 0 -6 -7 -11
-15 -11 -8 0 -15 -4 -15 -10 0 -5 -6 -9 -12 -7 -7 1 -12 -3 -11 -9 1 -6 -11
-10 -27 -9 -16 1 -27 -2 -25 -6 3 -4 -7 -17 -22 -29 -16 -12 -22 -19 -16 -15
7 3 13 4 13 1 0 -3 -13 -12 -30 -21 -16 -9 -30 -23 -30 -33 0 -15 -2 -15 -10
-2 -8 13 -10 12 -10 -3 0 -10 -5 -15 -10 -12 -9 6 -14 -7 -11 -27 0 -4 -6 -5
-14 -2 -8 4 -15 1 -15 -6 0 -6 -4 -9 -9 -6 -12 8 -34 -21 -26 -34 3 -5 1 -10
-5 -10 -6 0 -15 -11 -22 -25 -6 -13 -16 -21 -22 -18 -6 4 -5 -1 3 -11 12 -15
12 -17 0 -14 -8 2 -13 -3 -12 -9 2 -7 -4 -13 -12 -13 -9 0 -12 -6 -8 -17 4
-10 2 -14 -5 -9 -6 3 -13 2 -17 -4 -3 -5 -1 -10 5 -10 6 0 8 -5 5 -10 -4 -6
-11 -8 -16 -5 -5 4 -9 -3 -9 -15 0 -12 -5 -18 -10 -15 -6 3 -13 -1 -16 -9 -3
-9 -10 -14 -14 -11 -12 7 -41 -6 -35 -16 10 -15 -31 -29 -45 -16 -9 8 -11 8
-7 1 9 -16 -18 -25 -32 -11 -7 7 -12 8 -11 2 4 -21 0 -36 -9 -31 -14 9 -41 -5
-41 -21 0 -8 -3 -12 -7 -10 -5 2 -16 -4 -25 -14 -9 -10 -13 -19 -8 -21 5 -2
10 -10 12 -18 6 -28 22 -39 37 -26 11 8 13 8 8 -1 -4 -7 1 -14 12 -18 11 -3
22 -13 25 -22 5 -13 4 -14 -9 -3 -13 11 -14 10 -9 -4 3 -9 1 -16 -5 -16 -6 0
-8 -7 -4 -17 4 -10 2 -14 -4 -10 -10 7 -28 -19 -25 -35 1 -5 -5 -8 -13 -8 -8
0 -15 -5 -15 -11 0 -5 5 -7 12 -3 7 4 2 -6 -10 -23 -12 -17 -23 -42 -24 -56
-2 -17 -7 -23 -17 -19 -9 3 -12 1 -7 -6 3 -6 1 -14 -5 -17 -5 -4 -8 -14 -5
-22 3 -8 2 -12 -2 -9 -12 7 -44 -33 -37 -44 4 -6 -2 -10 -12 -10 -11 0 -14 -3
-7 -8 6 -4 13 -17 17 -30 4 -17 2 -22 -8 -18 -9 3 -12 0 -8 -9 3 -8 9 -13 13
-10 5 3 6 -4 3 -15 -3 -11 -10 -17 -17 -13 -6 3 0 -5 14 -18 24 -24 25 -24 36
-5 9 15 13 16 17 5 4 -10 6 -10 6 3 1 9 9 22 18 27 17 10 17 10 1 11 -9 0 -20
5 -23 10 -4 6 -3 10 2 9 20 -3 34 2 28 11 -3 6 1 10 9 10 9 0 16 7 16 15 0 8
4 15 9 15 14 0 20 37 7 51 -6 6 -6 9 -1 7 6 -3 16 0 23 8 7 8 10 14 5 14 -4 0
2 7 13 15 19 14 19 14 -1 15 -14 1 -16 3 -6 7 20 8 55 46 59 63 2 8 10 20 17
26 8 6 11 15 7 19 -4 5 1 5 10 2 10 -3 17 -3 17 1 -3 21 2 31 15 26 8 -3 16 3
19 16 3 12 10 19 16 15 7 -3 8 0 5 9 -4 9 0 18 9 22 9 3 13 12 11 19 -3 7 4
16 15 20 12 3 19 10 16 14 -5 9 56 67 67 63 5 -1 8 5 8 13 0 8 5 15 10 15 6 0
10 5 10 11 0 5 -6 7 -13 3 -6 -4 -2 3 10 15 24 23 38 28 27 9 -6 -10 -5 -10 7
-1 12 10 18 10 28 0 10 -9 11 -8 5 7 -5 13 -4 17 4 12 7 -4 12 -2 12 4 0 7 7
9 16 6 14 -5 15 -4 5 8 -11 13 -7 15 26 16 71 1 78 3 107 23 16 12 26 15 22 9
-9 -15 39 -9 58 7 7 6 17 7 21 3 5 -4 5 -1 1 6 -6 9 -1 11 19 8 20 -4 24 -2
16 7 -7 10 -5 13 10 14 12 1 17 -2 12 -10 -3 -7 4 -3 16 7 20 18 21 18 15 2
-7 -18 -6 -18 22 0 29 18 29 18 14 -1 -14 -20 -14 -20 8 -1 12 11 22 16 22 13
0 -3 12 5 26 18 15 14 30 23 33 20 4 -2 13 0 21 5 10 6 21 3 33 -8 10 -9 18
-12 17 -7 -5 24 1 27 16 9 11 -13 14 -14 11 -3 -3 9 1 16 9 16 7 0 11 -4 8 -9
-3 -4 4 -8 15 -8 12 0 21 5 21 11 0 5 5 7 10 4 6 -3 13 1 16 10 4 9 12 14 19
11 8 -3 16 2 19 10 3 8 11 14 18 14 9 0 8 -3 -2 -10 -9 -6 -10 -10 -3 -10 6 0
18 9 26 20 13 18 15 19 21 5 3 -9 2 -13 -4 -10 -6 3 -10 1 -10 -4 0 -15 6 -14
35 5 14 9 30 12 37 8 10 -6 11 -5 1 7 -10 12 -8 15 7 15 10 0 16 -4 13 -9 -3
-5 4 -3 16 5 12 7 21 17 21 21 0 5 7 7 14 4 10 -4 13 -1 10 7 -7 17 12 30 21
16 5 -8 11 -8 20 0 10 8 15 8 21 -1 5 -8 3 -9 -6 -4 -9 5 -11 4 -6 -4 4 -6 12
-9 17 -5 5 3 7 10 4 15 -4 5 0 9 7 9 8 0 20 9 28 20 10 14 16 16 22 7 6 -9 8
-9 8 1 0 6 5 12 11 12 5 0 8 -4 4 -9 -3 -6 6 -6 24 -1 19 5 33 4 41 -3 10 -9
11 -9 6 1 -6 9 -1 11 18 8 14 -3 30 -7 35 -10 5 -4 12 -2 16 3 3 5 14 8 25 6
13 -3 18 0 14 7 -5 7 0 9 14 6 16 -4 19 -2 15 10 -5 11 -1 10 14 -4 11 -10 18
-22 16 -26 -2 -4 3 -5 11 -2 9 3 13 11 9 17 -4 6 -1 7 8 1 8 -5 22 -7 32 -6 9
2 17 -2 17 -8 0 -6 5 -8 10 -5 6 4 7 12 3 19 -4 7 -1 4 8 -6 15 -16 18 -16 23
-2 6 15 9 15 29 1 17 -11 28 -12 41 -5 13 7 17 7 12 0 -7 -11 18 -35 27 -26
13 14 0 -23 -17 -46 -11 -14 -16 -18 -13 -7 4 9 2 17 -3 17 -6 0 -10 -5 -10
-11 0 -5 -5 -7 -10 -4 -6 4 -8 12 -4 18 3 7 -1 4 -10 -7 -9 -11 -22 -16 -31
-12 -9 3 -13 2 -10 -4 3 -6 -3 -10 -15 -10 -14 0 -19 -4 -15 -12 4 -7 1 -6 -7
2 -7 8 -19 16 -27 18 -12 3 -12 0 -1 -13 11 -13 10 -15 -4 -9 -9 3 -16 11 -16
16 0 6 -12 3 -26 -7 -15 -9 -23 -12 -20 -6 4 6 0 11 -8 11 -9 0 -16 -4 -16
-10 0 -5 -6 -9 -12 -7 -7 1 -12 -4 -10 -12 3 -12 0 -12 -12 -2 -12 10 -16 9
-25 -6 -6 -10 -11 -14 -11 -9 0 6 -7 1 -16 -10 -8 -10 -13 -14 -10 -8 3 7 -1
15 -10 18 -12 5 -15 2 -10 -11 6 -14 4 -14 -15 3 -12 10 -20 14 -16 8 3 -6 -9
-18 -29 -28 -20 -9 -33 -12 -29 -6 3 5 2 10 -4 10 -5 0 -14 -7 -19 -16 -6 -10
-23 -17 -46 -17 -28 -1 -35 -5 -31 -16 3 -9 3 -12 -1 -8 -4 4 -14 1 -22 -6
-13 -9 -14 -9 -8 1 4 6 3 12 -1 12 -5 0 -15 -6 -22 -12 -11 -11 -12 -10 -6 1
6 10 4 12 -4 7 -7 -5 -10 -15 -6 -23 4 -13 3 -14 -9 -4 -8 7 -17 8 -20 3 -3
-5 -15 -12 -26 -15 -11 -3 -18 -1 -14 4 3 5 0 9 -5 9 -10 0 -15 -15 -12 -34 1
-5 -10 -1 -25 9 -14 9 -23 12 -20 6 4 -6 0 -11 -9 -11 -8 0 -18 -7 -22 -16 -6
-15 -8 -15 -20 2 -12 16 -13 16 -13 1 0 -10 -8 -17 -21 -17 -11 0 -17 -4 -14
-10 5 -9 -1 -12 -21 -9 -3 0 -12 -8 -20 -18 -12 -16 -15 -16 -24 -3 -7 11 -10
11 -10 2 0 -7 -4 -10 -10 -7 -5 3 -10 -1 -10 -10 0 -9 -4 -13 -10 -10 -5 3
-10 -2 -10 -12 0 -15 -2 -16 -10 -3 -8 12 -10 12 -16 -3 -5 -15 -9 -15 -22 -5
-9 7 -13 8 -10 3 4 -6 -3 -17 -15 -25 -21 -12 -21 -12 -7 5 14 17 14 18 -9 5
-14 -7 -34 -21 -45 -32 -11 -10 -26 -16 -33 -14 -7 3 -13 -1 -13 -9 0 -8 -7
-15 -16 -15 -8 0 -12 -5 -9 -10 4 -6 3 -10 -2 -9 -22 4 -43 -2 -38 -11 3 -6
-1 -7 -9 -4 -11 4 -16 0 -16 -12 0 -16 -2 -16 -10 -4 -8 12 -10 12 -16 -3 -3
-9 -10 -14 -15 -11 -9 5 -13 -8 -10 -36 2 -13 1 -13 -8 0 -9 13 -12 13 -23 1
-11 -11 -11 -13 1 -6 10 6 12 4 7 -4 -9 -13 -37 -11 -48 4 -4 6 -8 2 -8 -8 0
-10 -4 -16 -8 -13 -10 6 -52 -39 -52 -55 0 -7 -6 -7 -17 2 -10 8 -14 9 -10 2
4 -6 3 -14 -3 -18 -6 -4 -8 -10 -5 -15 3 -4 -10 -6 -27 -4 -18 3 -28 1 -22 -3
9 -6 8 -12 -2 -21 -8 -7 -14 -10 -14 -5 0 4 -6 -2 -14 -12 -8 -11 -12 -24 -8
-30 3 -5 -1 -4 -10 3 -13 10 -17 10 -22 -5 -6 -15 -8 -15 -16 -3 -7 11 -10 11
-10 2 0 -7 -25 -36 -55 -66 -30 -29 -52 -56 -48 -60 4 -4 -1 -4 -10 0 -10 3
-17 3 -16 -2 4 -21 -2 -26 -16 -14 -13 11 -14 10 -9 -5 6 -14 4 -16 -6 -10 -9
6 -11 4 -6 -4 9 -14 -22 -53 -35 -45 -5 3 -9 -2 -9 -11 0 -8 -7 -18 -16 -22
-8 -3 -13 -12 -9 -21 4 -12 3 -13 -10 -2 -12 10 -16 9 -21 -4 -3 -9 -10 -14
-15 -11 -9 6 -4 -29 7 -48 5 -7 1 -7 -10 2 -9 8 -16 10 -15 5 3 -20 -1 -35
-10 -30 -5 4 -8 -2 -7 -11 2 -9 -8 -28 -21 -41 -12 -12 -23 -27 -23 -33 0 -6
-4 -8 -9 -4 -5 3 -16 -4 -24 -15 -7 -11 -17 -17 -22 -12 -4 4 -5 -1 -1 -12 5
-14 3 -17 -10 -12 -14 5 -15 4 -5 -8 10 -12 8 -16 -8 -21 -11 -3 -20 -11 -18
-17 1 -6 -4 -13 -12 -16 -9 -3 -11 0 -6 8 5 9 4 11 -4 6 -9 -6 -9 -12 1 -24 7
-10 8 -14 4 -10 -10 8 -46 -28 -46 -45 0 -6 -3 -8 -6 -4 -7 6 -38 -21 -40 -35
-1 -4 -2 -13 -3 -19 0 -5 -5 -7 -11 -4 -5 3 -10 1 -10 -4 0 -6 6 -11 13 -12 6
0 2 -4 -10 -9 -13 -5 -23 -14 -23 -20 0 -6 -4 -8 -10 -5 -5 3 -10 -1 -10 -9 0
-9 -5 -16 -12 -16 -6 0 -8 -3 -5 -7 4 -3 -1 -12 -11 -20 -9 -8 -11 -12 -5 -8
9 4 11 1 7 -10 -4 -9 -9 -13 -12 -10 -10 9 -41 -26 -35 -41 3 -8 0 -14 -6 -14
-6 0 -10 -6 -8 -12 1 -7 -5 -12 -14 -12 -11 1 -15 -6 -13 -22 1 -13 -2 -22 -7
-18 -8 5 -13 -10 -10 -30 1 -5 -5 -6 -14 -2 -9 3 -14 2 -11 -3 3 -5 -1 -14 -9
-21 -12 -10 -13 -16 -4 -27 10 -11 8 -12 -6 -6 -15 5 -17 3 -12 -11 5 -14 3
-17 -8 -12 -16 6 -32 -34 -21 -52 3 -6 -1 -13 -10 -16 -9 -4 -14 -13 -10 -21
3 -8 1 -14 -5 -12 -6 1 -18 -9 -27 -23 -12 -17 -13 -22 -3 -16 10 6 12 5 7 -2
-4 -7 -15 -12 -24 -12 -10 0 -13 -3 -7 -8 17 -12 17 -35 0 -28 -9 3 -13 2 -10
-3 3 -5 0 -13 -6 -16 -5 -4 -8 -13 -5 -21 3 -8 -1 -14 -8 -14 -8 0 -16 -9 -19
-21 -3 -12 -10 -19 -15 -15 -5 3 -9 -1 -9 -9 0 -8 5 -12 11 -9 6 3 2 -2 -8
-10 -11 -9 -15 -16 -8 -16 6 0 9 -7 6 -15 -4 -8 -11 -12 -18 -8 -6 4 -5 -1 3
-11 8 -9 10 -16 4 -14 -6 2 -11 -1 -11 -7 0 -5 4 -9 9 -7 5 1 4 -7 -3 -18 -7
-10 -14 -17 -16 -15 -10 9 -34 -27 -39 -60 -3 -19 -9 -32 -13 -30 -5 3 -6 -4
-3 -15 3 -13 0 -20 -8 -20 -10 0 -10 -3 -2 -11 9 -9 6 -17 -13 -32 -14 -10
-23 -22 -19 -25 3 -3 12 3 21 14 14 18 15 18 4 -3 -6 -13 -16 -23 -23 -23 -8
0 -7 -4 3 -11 11 -8 12 -12 3 -16 -7 -2 -13 -14 -13 -24 0 -14 -4 -18 -12 -13
-10 6 -10 4 0 -8 11 -14 10 -18 -5 -27 -10 -6 -14 -11 -9 -11 5 0 4 -6 -1 -12
-17 -22 -24 -50 -11 -42 7 5 9 2 5 -8 -3 -9 0 -21 6 -27 8 -8 5 -9 -11 -6 -15
2 -19 0 -15 -11 3 -8 0 -14 -7 -14 -6 0 -8 -5 -3 -12 4 -7 8 -19 9 -26 2 -10
-1 -11 -12 -1 -8 7 -14 8 -13 3 4 -21 -2 -35 -12 -29 -6 4 -5 -3 3 -14 11 -18
11 -23 -2 -31 -12 -8 -12 -10 5 -10 18 -1 19 -1 3 -11 -10 -5 -18 -17 -18 -24
0 -8 -6 -15 -12 -15 -9 0 -8 -4 2 -10 13 -9 13 -10 0 -11 -10 0 -8 -3 5 -9 11
-5 15 -9 8 -9 -7 -1 -10 -7 -7 -15 3 -8 0 -17 -7 -22 -8 -5 -10 -3 -4 6 5 9 4
11 -4 6 -15 -10 -4 -26 17 -26 16 -1 16 -1 0 -11 -10 -5 -18 -15 -18 -22 0 -7
4 -6 10 3 7 12 9 10 7 -7 0 -12 -5 -19 -9 -17 -4 3 -8 -2 -8 -11 0 -10 -5 -13
-12 -9 -7 5 -8 3 -2 -7 11 -18 13 -99 2 -105 -4 -3 -8 -10 -8 -15 0 -6 4 -8 9
-4 5 3 13 0 17 -6 4 -7 3 -9 -4 -5 -6 3 -14 1 -18 -5 -3 -6 0 -15 7 -20 8 -5
9 -9 4 -9 -15 0 -16 -40 -2 -40 7 0 6 -4 -3 -10 -8 -5 -11 -12 -7 -16 4 -4 2
-13 -4 -20 -8 -10 -6 -12 11 -9 18 3 20 2 10 -10 -7 -8 -17 -12 -24 -8 -6 4
-4 -2 4 -12 9 -11 10 -16 2 -11 -7 4 -12 2 -12 -4 0 -6 -4 -9 -9 -5 -10 5 -5
-40 5 -57 3 -4 1 -8 -3 -8 -14 0 -8 -123 7 -150 12 -23 12 -24 -4 -11 -14 12
-16 12 -10 -3 3 -9 15 -16 26 -16 10 0 16 -5 13 -10 -4 -6 -11 -8 -16 -5 -5 3
-6 -1 -3 -9 3 -9 11 -16 17 -16 6 0 2 -6 -8 -14 -18 -13 -18 -13 1 -24 10 -6
14 -12 9 -12 -15 0 -16 -40 -2 -40 7 0 6 -4 -3 -10 -8 -5 -11 -12 -7 -16 4 -4
2 -13 -4 -20 -7 -8 -6 -14 2 -20 7 -4 9 -3 6 3 -3 5 0 10 8 10 9 0 11 -4 6
-11 -4 -6 -7 -21 -6 -33 1 -18 -1 -20 -12 -11 -11 8 -12 7 -7 -6 3 -9 9 -16
13 -16 4 0 7 -9 7 -20 0 -12 -5 -19 -13 -16 -7 3 -10 -1 -6 -10 3 -7 10 -14
17 -14 7 0 7 -3 1 -8 -15 -11 -18 -42 -4 -42 7 0 4 -7 -7 -16 -10 -8 -13 -13
-6 -9 16 8 16 -7 0 -24 -9 -10 -9 -12 -1 -7 6 3 14 2 18 -4 3 -5 1 -10 -6 -10
-7 0 -5 -6 6 -14 11 -8 16 -19 12 -30 -4 -11 -1 -16 11 -16 14 0 15 -2 2 -9
-8 -6 -19 -7 -25 -3 -5 3 -2 -6 8 -21 9 -15 15 -27 11 -27 -4 0 -1 -7 6 -15
11 -13 10 -14 -2 -10 -9 4 -15 0 -15 -10 0 -8 5 -15 10 -15 5 0 3 -8 -4 -17
-12 -14 -12 -16 0 -8 11 6 13 4 8 -8 -4 -12 -1 -17 11 -17 15 0 15 -2 2 -10
-10 -6 -11 -10 -3 -10 7 0 12 -11 11 -25 -1 -14 -6 -25 -11 -25 -5 0 -1 -7 7
-16 21 -20 20 -25 -1 -18 -14 4 -13 2 2 -7 28 -17 33 -28 27 -52 -4 -15 -2
-18 9 -13 8 4 5 0 -5 -8 -11 -9 -14 -16 -8 -16 7 0 12 -5 12 -11 0 -5 -4 -7
-10 -4 -6 3 -7 -1 -4 -9 3 -9 10 -16 15 -16 5 0 9 -9 9 -20 0 -11 5 -20 11
-20 6 0 3 -7 -5 -16 -19 -19 -20 -25 -4 -22 7 2 12 -7 13 -19 0 -12 6 -28 13
-34 14 -15 16 -33 2 -24 -5 3 -10 1 -10 -4 0 -6 5 -11 10 -11 6 0 10 -5 10
-11 0 -5 -6 -7 -13 -3 -8 5 -8 3 2 -9 7 -9 17 -14 22 -11 10 6 12 -9 2 -19 -3
-4 -8 -19 -9 -34 -2 -21 -1 -24 6 -13 8 12 10 9 10 -12 0 -40 10 -57 28 -51
11 3 13 2 6 -4 -13 -10 -14 -43 -1 -43 5 0 6 -7 3 -15 -3 -9 1 -18 10 -22 13
-5 13 -7 2 -14 -10 -7 -10 -9 0 -9 6 0 12 -7 12 -15 0 -8 5 -15 11 -15 8 0 7
-6 -2 -17 -10 -11 -10 -14 -1 -9 7 4 12 2 12 -4 0 -6 4 -8 10 -5 7 4 7 -3 0
-20 -7 -17 -7 -24 0 -20 10 6 12 2 13 -37 1 -13 8 -29 17 -36 8 -8 9 -10 2 -7
-11 6 -12 3 -3 -14 7 -11 14 -21 17 -21 3 0 2 5 -2 12 -4 7 -3 8 4 4 6 -4 9
-13 5 -21 -3 -8 0 -15 5 -15 6 0 9 -9 7 -20 -2 -11 1 -23 7 -26 6 -4 8 -2 4 4
-3 6 -2 13 3 16 5 4 8 -1 7 -10 -1 -8 -8 -19 -16 -24 -9 -6 -7 -9 8 -14 13 -4
19 -13 15 -22 -3 -7 0 -14 6 -14 9 0 9 -5 0 -21 -9 -17 -8 -20 2 -14 9 6 11 3
6 -8 -4 -10 -2 -16 6 -14 6 1 13 -8 15 -20 2 -13 8 -23 14 -23 6 0 8 -3 5 -7
-4 -3 -2 -12 4 -19 6 -8 9 -21 5 -29 -6 -17 5 -20 20 -5 7 7 10 -1 11 -23 1
-22 10 -43 27 -60 15 -16 23 -32 20 -41 -6 -15 6 -21 31 -16 6 1 5 -4 -2 -11
-9 -9 -7 -16 8 -32 12 -13 15 -24 9 -32 -6 -7 -3 -16 10 -25 10 -7 16 -18 13
-24 -4 -6 1 -5 10 3 15 12 17 11 17 -8 0 -11 5 -21 11 -21 5 0 7 -5 4 -10 -3
-6 -1 -10 4 -10 6 0 11 -10 11 -22 0 -19 2 -20 10 -8 8 12 10 10 10 -8 0 -13
4 -21 9 -17 5 3 13 0 17 -6 4 -8 3 -9 -4 -5 -7 4 -12 2 -12 -3 0 -6 6 -11 13
-11 8 0 7 -4 -3 -10 -13 -8 -12 -10 4 -10 11 0 17 -3 13 -6 -3 -4 2 -14 11
-23 11 -10 12 -12 2 -6 -10 6 -9 2 4 -12 10 -13 22 -20 27 -17 4 2 6 -5 4 -16
-2 -11 0 -20 5 -20 5 0 15 -14 24 -30 9 -20 10 -28 3 -24 -7 3 -4 -1 5 -9 10
-8 15 -17 11 -21 -4 -4 1 -4 11 0 14 5 17 4 12 -4 -4 -7 -2 -12 3 -12 6 0 11
-7 11 -15 0 -9 7 -18 15 -21 10 -4 13 -13 10 -25 -4 -11 -2 -19 5 -19 6 0 8 6
4 13 -4 6 2 4 14 -7 12 -10 19 -23 16 -27 -3 -5 2 -9 10 -9 9 0 23 -17 32 -40
15 -36 24 -45 46 -41 4 0 5 -6 2 -14 -4 -10 0 -15 12 -16 12 0 14 -3 6 -6 -9
-4 -7 -10 7 -22 12 -10 18 -21 14 -24 -3 -4 2 -9 11 -13 9 -3 16 -12 16 -20 0
-8 6 -14 13 -14 17 0 40 -47 31 -62 -4 -6 -3 -8 3 -5 5 3 15 -3 23 -13 8 -10
17 -17 22 -14 4 3 8 -2 8 -10 0 -9 7 -16 17 -16 9 0 14 -3 10 -6 -9 -9 30 -47
42 -40 6 4 8 -2 6 -15 -3 -16 -1 -18 8 -10 10 7 17 5 27 -9 7 -10 17 -17 22
-14 4 3 8 0 8 -6 0 -6 4 -8 10 -5 6 3 7 -1 4 -9 -3 -9 -1 -16 6 -16 6 0 8 -5
5 -10 -3 -6 -1 -10 4 -10 6 0 11 -6 11 -14 0 -8 9 -18 20 -21 11 -3 20 -11 20
-16 0 -13 26 -40 32 -33 3 2 13 -10 21 -28 9 -18 17 -29 17 -24 0 5 8 -1 19
-12 10 -12 21 -19 25 -15 3 3 6 1 6 -6 0 -16 25 -41 41 -41 7 0 10 -3 6 -6 -8
-8 16 -33 25 -27 5 2 8 -3 8 -13 0 -14 2 -15 17 -3 9 8 14 10 11 4 -3 -5 0
-16 8 -23 8 -7 14 -10 14 -7 0 4 12 -3 26 -14 15 -11 31 -18 38 -14 6 4 4 -2
-4 -12 -12 -15 -12 -17 -1 -10 11 6 13 4 8 -7 -8 -22 2 -29 26 -17 15 8 18 8
12 -1 -5 -8 -3 -11 5 -8 7 2 24 -6 38 -19 14 -13 32 -23 40 -23 8 0 13 -3 9
-6 -6 -7 13 -30 26 -32 5 0 17 -10 27 -22 10 -12 22 -21 27 -22 4 0 7 -4 6 -9
-2 -4 4 -6 12 -3 9 4 15 0 15 -10 0 -9 6 -16 13 -16 7 0 23 -18 37 -40 18 -30
27 -36 37 -28 10 8 13 6 13 -5 0 -11 5 -14 17 -10 11 4 14 3 9 -5 -4 -8 -2
-10 8 -6 18 7 57 -26 49 -40 -3 -6 -3 -8 2 -4 4 4 16 -4 27 -17 11 -14 26 -25
34 -25 8 0 12 -4 9 -10 -3 -5 3 -10 14 -10 12 0 21 -5 21 -11 0 -5 5 -7 10 -4
6 4 8 10 5 15 -3 4 4 6 15 3 11 -3 20 -9 20 -13 0 -5 9 -12 20 -15 11 -4 17
-11 14 -17 -4 -6 -2 -8 4 -4 6 3 13 2 17 -4 3 -5 15 -10 26 -10 11 0 17 -4 14
-10 -3 -5 -1 -10 5 -10 6 0 9 -4 6 -9 -6 -9 22 -26 38 -22 5 1 18 -6 29 -16
11 -10 17 -12 13 -5 -4 6 -3 12 3 12 5 0 12 -6 14 -12 4 -10 6 -10 6 1 1 7 14
-1 31 -19 17 -18 30 -26 30 -20 0 7 9 3 19 -9 10 -12 23 -21 27 -20 24 4 44
-2 42 -13 -2 -7 10 -12 29 -13 18 0 38 -7 45 -15 11 -12 10 -12 -7 0 -11 7 -3
-3 18 -23 37 -36 54 -47 42 -27 -3 6 1 7 10 4 8 -4 20 -15 26 -25 5 -11 14
-17 19 -14 6 3 18 1 27 -4 13 -7 14 -10 4 -11 -8 0 -11 -3 -8 -6 4 -4 14 -1
24 7 11 9 14 10 9 1 -4 -7 0 -15 11 -19 25 -10 43 -29 35 -38 -4 -4 3 -2 16 4
12 7 20 17 16 23 -4 7 -3 8 5 4 6 -4 8 -12 5 -18 -5 -7 -1 -9 9 -5 10 4 17 2
17 -4 0 -7 13 -9 30 -7 17 3 34 0 37 -5 3 -6 1 -7 -5 -3 -7 4 -12 2 -12 -3 0
-6 7 -11 16 -11 9 0 12 -5 8 -12 -4 -7 -3 -8 5 -4 6 4 9 11 6 16 -7 11 25 6
33 -6 4 -5 14 -10 22 -12 8 -2 17 -8 18 -13 2 -5 14 -9 27 -9 13 0 26 -6 28
-12 4 -10 8 -9 16 2 10 13 15 8 12 -12 0 -4 7 -4 16 -1 12 5 14 3 8 -8 -7 -11
-5 -11 10 1 15 12 17 12 10 1 -6 -11 -3 -13 13 -9 12 4 25 1 29 -4 4 -7 1 -8
-7 -3 -9 5 -11 4 -6 -4 6 -9 11 -9 22 0 11 9 14 8 14 -4 0 -9 4 -19 10 -22 6
-3 7 1 4 9 -8 20 0 20 20 0 15 -14 16 -14 16 2 0 16 1 16 14 -1 10 -15 25 -19
60 -18 25 1 49 -3 52 -9 5 -7 2 -8 -7 -3 -8 5 -10 4 -6 0 10 -12 38 -15 32 -4
-4 5 1 6 9 3 9 -3 16 -10 16 -15 0 -5 5 -9 11 -9 5 0 7 6 3 13 -6 9 -4 9 8 -1
11 -9 18 -10 23 -2 4 7 11 5 21 -4 8 -9 20 -13 28 -10 7 3 25 0 40 -6 15 -5
25 -6 22 -2 -2 4 4 8 14 8 10 0 17 -3 14 -7 -2 -4 3 -10 12 -13 8 -3 12 -2 9
3 -3 5 -1 12 5 16 5 3 10 1 10 -6 0 -8 4 -8 13 -1 14 12 52 -10 39 -23 -4 -4
3 -3 15 4 17 8 24 8 30 -1 4 -7 18 -13 30 -14 12 0 20 3 18 7 -8 12 24 19 32
6 9 -13 55 -19 47 -5 -3 4 0 8 5 8 6 0 11 -8 12 -17 0 -14 2 -13 9 5 5 12 12
22 14 22 3 0 3 -6 1 -13 -3 -7 4 -12 19 -12 16 0 22 4 18 14 -3 9 -1 12 6 7 7
-4 12 -15 13 -24 0 -12 3 -11 9 6 10 23 23 32 15 9 -4 -8 5 -12 25 -13 16 -1
30 3 30 8 0 5 -4 6 -10 3 -5 -3 -10 -1 -10 4 0 16 11 14 32 -6 17 -15 18 -15
19 3 1 15 3 13 9 -6 6 -17 8 -19 9 -7 1 15 5 16 21 7 16 -9 20 -8 20 5 0 9 5
13 10 10 6 -4 7 -11 4 -17 -4 -7 -2 -8 5 -4 6 4 19 2 28 -6 12 -9 15 -9 9 0
-4 7 -1 12 8 12 9 0 16 6 16 13 0 9 3 8 9 -2 5 -7 15 -10 22 -7 8 4 5 1 -5 -8
-18 -15 -17 -15 12 -11 20 2 32 -1 32 -8 0 -7 4 -6 10 3 8 12 10 12 11 -5 l0
-20 9 20 9 20 1 -20 c1 -19 2 -19 12 2 l11 22 17 -21 c13 -17 19 -18 25 -8 6
9 4 11 -5 5 -9 -5 -11 -4 -6 4 4 6 12 9 17 6 5 -4 9 0 9 7 0 8 4 7 11 -4 8
-14 15 -15 35 -8 14 6 23 6 20 1 -3 -5 1 -11 9 -14 10 -4 12 -1 8 11 -6 15 -5
15 10 3 14 -11 17 -11 18 0 0 8 4 5 9 -6 5 -11 9 -14 9 -6 1 8 8 11 21 8 11
-3 20 -1 20 5 0 6 11 3 24 -6 18 -11 27 -13 32 -4 5 7 3 8 -6 3 -9 -5 -11 -4
-6 4 4 6 12 9 17 6 5 -4 9 -1 9 6 0 7 7 4 15 -7 8 -11 14 -14 15 -6 0 8 6 10
18 5 26 -12 62 -9 71 6 6 10 10 9 14 -4 5 -11 3 -14 -6 -9 -6 4 -8 3 -4 -1 10
-12 38 -15 31 -4 -3 5 -1 9 5 9 5 0 11 -4 13 -9 5 -15 43 -18 40 -3 -1 8 2 11
7 7 6 -3 8 -11 5 -19 -6 -15 25 -18 44 -3 8 6 12 6 12 -3 0 -10 4 -10 16 1 13
10 17 10 24 -2 7 -11 12 -11 22 -1 14 14 32 17 24 3 -3 -4 4 -8 15 -7 11 0 24
8 29 16 9 13 10 13 10 0 0 -9 9 -16 19 -16 13 0 17 4 11 11 -6 7 -2 11 11 11
10 0 19 -4 19 -9 0 -5 8 -3 17 4 11 10 14 10 9 2 -11 -19 5 -15 21 4 10 14 13
14 11 3 -2 -12 6 -14 40 -13 26 2 41 -1 37 -7 -3 -6 1 -7 9 -4 9 3 13 11 9 18
-4 8 -2 8 7 -1 7 -6 19 -9 28 -6 11 5 13 3 7 -8 -8 -12 -6 -12 8 0 14 11 17
11 17 0 0 -10 3 -10 12 -1 15 15 32 16 22 1 -4 -8 0 -8 15 0 11 7 21 8 21 3 0
-16 40 -6 56 14 8 10 13 14 10 7 -8 -14 29 -6 68 15 5 3 6 0 2 -6 -11 -19 18
-19 61 -1 30 13 44 15 49 7 5 -7 2 -8 -6 -3 -8 5 -11 4 -6 -3 4 -6 13 -9 21
-6 8 4 12 10 9 15 -3 5 2 6 11 3 10 -4 22 1 30 12 12 16 14 17 20 4 3 -10 16
-15 33 -14 15 1 35 3 45 3 11 1 16 6 12 14 -4 6 0 4 7 -5 13 -15 15 -15 26 0
9 14 10 14 6 1 -4 -12 2 -14 31 -11 19 2 33 7 31 11 -3 4 8 12 25 18 16 6 27
7 23 2 -3 -5 2 -9 10 -9 9 0 16 4 16 9 0 6 9 8 20 6 11 -2 20 1 20 6 0 6 9 7
21 4 13 -4 19 -3 16 2 -4 5 0 10 8 10 8 0 12 -4 9 -8 -2 -4 1 -11 7 -15 7 -4
9 -3 6 2 -3 6 -2 16 4 24 7 12 9 12 9 -4 0 -14 3 -16 13 -7 8 6 18 7 22 3 5
-4 5 -1 1 6 -4 6 -4 12 1 13 4 0 18 2 31 3 13 2 25 -1 28 -6 7 -12 24 -10 24
3 0 5 -5 7 -12 3 -7 -4 -8 -3 -4 5 4 6 13 8 19 4 21 -13 41 -9 56 11 14 18 15
18 28 1 12 -17 13 -17 13 -2 0 9 7 17 15 17 9 0 12 -6 8 -17 -3 -10 9 -2 27
17 18 19 30 29 26 23 -4 -7 -3 -13 1 -13 5 0 15 6 22 13 11 10 13 9 8 -4 -7
-21 32 -18 48 4 13 18 75 31 75 15 0 -5 7 -5 18 0 9 5 23 7 31 4 9 -3 11 0 6
8 -6 9 -4 11 4 5 7 -4 24 -1 38 6 20 11 26 11 33 -1 8 -13 10 -13 10 -1 0 8 3
11 7 8 3 -4 13 -1 21 6 13 9 14 9 8 0 -4 -7 -3 -13 2 -13 6 0 13 7 16 16 4 10
14 14 26 11 11 -3 20 0 20 6 0 8 3 7 9 -1 6 -11 10 -10 15 3 4 10 12 15 22 11
8 -3 13 -2 10 3 -3 5 1 11 9 15 8 3 15 0 15 -7 0 -7 7 -3 15 7 12 15 15 16 15
5 0 -17 34 -19 47 -4 5 4 3 5 -4 1 -6 -3 -14 -2 -18 4 -5 9 15 15 38 11 4 0 7
7 7 16 0 15 2 16 10 3 9 -14 14 -7 11 13 -1 4 8 3 19 -3 14 -8 20 -8 20 0 0 6
4 9 9 5 6 -3 14 3 20 12 6 10 11 14 11 9 0 -5 6 -3 14 3 8 6 18 11 22 10 26
-4 45 2 38 14 -5 8 -2 8 9 -2 14 -11 17 -11 17 0 0 11 2 11 10 -1 8 -13 10
-12 10 3 0 9 7 17 16 17 8 0 12 4 9 10 -3 6 1 7 9 4 11 -4 16 0 16 15 0 15 4
19 17 14 10 -4 14 -2 10 4 -5 8 2 9 20 4 21 -6 32 -2 48 14 19 20 19 20 5 0
-13 -18 -12 -17 11 3 14 12 29 19 33 15 4 -4 4 1 1 12 -7 20 -6 20 9 1 16 -20
16 -20 16 0 0 14 2 16 9 5 6 -9 11 -10 15 -2 4 6 5 15 2 20 -4 5 3 7 14 4 12
-3 28 5 46 23 15 16 24 22 20 14 -5 -9 -2 -8 7 2 8 10 17 15 20 12 3 -4 13 1
21 9 9 9 25 13 38 10 16 -3 19 -2 10 5 -11 7 -8 11 10 17 12 4 27 7 31 6 5 -1
6 3 3 8 -4 5 3 12 14 16 11 3 20 11 20 17 0 5 7 7 16 4 15 -6 15 -4 3 10 -13
16 -12 16 9 5 16 -9 22 -9 22 0 0 22 39 46 65 41 19 -3 25 0 25 12 0 10 4 15
9 12 5 -4 11 -1 13 4 3 10 21 16 51 19 5 1 6 5 3 10 -5 8 40 26 57 23 4 -1 7
3 7 9 0 5 4 8 9 4 5 -3 12 4 16 15 4 11 10 18 14 16 4 -3 14 4 21 15 15 19 36
28 25 9 -3 -5 -2 -10 4 -10 5 0 13 9 16 20 4 11 11 18 16 15 5 -4 9 -1 9 4 0
6 6 11 14 11 8 0 18 5 22 12 5 7 2 9 -7 4 -8 -4 -3 2 11 14 14 12 19 18 11 14
-9 -5 -12 -3 -7 4 4 7 14 12 22 12 8 0 14 5 14 12 0 9 3 9 12 0 15 -15 31 -16
22 0 -5 8 -2 9 9 5 9 -3 19 -1 23 5 5 7 2 8 -7 3 -8 -4 -1 4 15 19 16 14 33
26 38 26 5 0 6 5 3 10 -3 6 -1 10 5 10 6 0 8 4 5 10 -4 6 1 7 11 3 12 -4 15
-3 10 5 -4 7 -1 12 9 12 9 0 13 5 10 10 -4 7 3 9 20 6 15 -3 25 -3 22 0 -6 7
60 74 73 74 6 0 9 3 8 7 -2 5 8 19 22 33 24 24 50 32 60 19 3 -4 11 -1 18 7 7
8 8 14 2 14 -5 0 -1 9 10 20 12 12 18 25 15 29 -3 5 4 7 15 4 14 -4 20 0 20
11 0 10 6 13 15 10 8 -4 15 -1 15 6 0 6 4 8 10 5 6 -4 7 1 3 12 -3 10 -3 15 1
11 9 -8 46 27 46 44 0 6 3 8 7 5 9 -9 53 33 53 50 0 7 6 13 14 13 8 0 17 7 20
16 3 8 10 12 16 9 6 -4 7 1 3 12 -3 10 -2 15 2 11 9 -9 105 85 105 102 0 6 3
9 8 7 4 -3 13 1 20 9 7 8 10 14 5 14 -4 0 2 6 12 14 11 8 16 19 12 30 -6 14
-4 15 16 5 20 -11 21 -11 8 5 -12 14 -12 16 4 10 13 -5 16 -4 11 4 -4 7 -2 12
4 12 6 0 15 12 20 26 6 14 14 22 20 19 9 -6 14 8 11 28 -1 5 3 6 9 2 5 -3 10
-1 10 5 0 6 5 8 12 4 8 -5 9 0 5 15 -4 18 -2 21 10 17 13 -5 14 -4 3 9 -11 13
-10 14 5 8 15 -5 17 -3 12 11 -4 9 -3 15 1 13 9 -6 63 49 55 57 -4 3 2 6 13 6
13 0 15 3 6 8 -17 11 33 66 51 56 8 -5 8 -2 -2 9 -12 15 -11 17 5 17 16 0 17
2 4 10 -11 7 -11 10 -2 10 7 0 10 5 7 10 -3 6 1 10 9 10 9 0 16 5 16 11 0 5 5
7 12 3 7 -4 8 -3 4 5 -4 6 -1 14 8 17 8 3 12 12 9 20 -3 7 2 16 10 20 8 3 14
13 13 22 -3 18 36 62 56 62 9 0 9 3 -2 10 -13 8 -12 10 3 10 11 0 17 8 17 21
0 14 5 19 14 16 10 -4 12 0 9 14 -3 12 0 19 8 20 8 0 5 4 -6 9 -18 8 -18 9 -2
9 15 1 16 4 6 22 -7 14 -7 19 0 15 10 -7 34 27 26 38 -3 3 -2 4 1 1 4 -2 15 6
26 18 15 17 18 18 14 5 -7 -24 1 -23 14 1 7 14 7 22 -2 27 -7 5 -8 3 -3 -6 5
-8 4 -11 -3 -6 -13 8 -5 36 10 36 5 0 6 5 3 10 -3 6 -1 10 4 10 6 0 11 7 11
16 0 8 4 12 10 9 5 -3 7 0 4 9 -3 9 3 19 16 26 16 9 21 18 17 36 -4 21 -2 22
11 12 13 -11 14 -11 8 0 -10 16 12 44 28 35 6 -4 5 1 -3 10 -7 9 -9 17 -4 17
13 0 11 42 -2 53 -6 4 -1 7 10 5 14 -2 20 2 19 14 -1 10 3 15 8 12 10 -6 37
24 37 41 0 6 -4 2 -10 -7 -5 -10 -15 -18 -22 -18 -8 0 -8 3 -2 8 18 13 36 53
29 64 -4 6 -3 8 3 5 6 -4 13 0 17 8 3 8 0 17 -5 21 -6 4 -2 14 10 26 12 10 19
23 16 29 -4 5 -1 9 4 9 6 0 10 6 9 13 -2 6 2 11 8 10 11 -2 14 7 17 56 1 21 6
27 17 23 13 -5 13 -3 1 11 -12 15 -11 20 5 40 16 18 16 20 1 8 -15 -12 -17
-12 -11 3 3 9 11 16 16 16 6 0 8 7 5 14 -4 11 -1 13 10 9 13 -5 15 -2 10 11
-4 10 -3 15 3 11 6 -3 10 -1 10 4 0 6 -5 11 -11 11 -8 0 -8 4 1 15 6 8 9 19 5
25 -4 6 -2 9 3 8 8 -3 14 5 11 15 -6 18 -3 45 4 40 6 -4 8 1 4 11 -4 10 -1 19
8 23 10 3 13 12 9 25 -4 13 -2 18 4 14 6 -3 13 -2 16 3 4 5 1 13 -5 17 -8 5
-9 3 -4 -7 5 -8 4 -11 -1 -6 -10 10 -12 30 -4 37 11 9 39 71 29 65 -5 -4 -9
-1 -9 5 0 6 -5 8 -12 4 -7 -4 -8 -3 -4 5 4 6 11 9 16 6 5 -3 12 5 16 17 4 13
12 26 18 30 7 5 6 8 -4 8 -13 0 -13 1 0 10 12 8 12 10 1 10 -11 0 -11 3 -1 15
6 8 9 19 6 24 -4 5 1 14 10 19 11 6 13 11 5 16 -6 4 -11 13 -11 19 0 7 4 6 10
-3 6 -10 9 -6 8 18 -1 19 -5 29 -12 26 -6 -3 -2 2 8 10 15 12 16 16 5 16 -8 0
-15 9 -15 19 0 16 3 18 16 8 8 -6 12 -7 8 -3 -4 5 -4 14 1 20 14 19 20 56 9
63 -7 4 -8 1 -3 -7 6 -9 4 -11 -5 -5 -11 7 -10 10 1 19 8 6 13 19 11 30 -2 11
0 16 7 12 7 -5 8 -1 4 10 -5 12 -3 15 6 9 10 -6 11 -3 3 12 -6 11 -7 25 -2 33
5 9 4 20 -3 29 -10 12 -9 14 8 8 20 -7 20 -7 1 8 -11 8 -14 15 -8 15 7 0 11 3
11 8 -3 18 2 32 12 32 5 0 7 -5 3 -12 -4 -7 -3 -8 5 -4 8 6 9 12 2 20 -6 7 -8
16 -5 19 3 3 2 12 -2 19 -12 18 -14 39 -4 33 5 -3 11 -1 15 5 3 5 3 10 -2 10
-4 0 -9 14 -10 30 -1 18 2 28 7 25 6 -4 10 -2 10 3 0 6 -7 12 -15 16 -8 3 -12
12 -9 21 3 8 11 12 18 8 8 -4 8 -2 -1 7 -11 12 -7 44 6 36 10 -6 7 697 -3 713
-7 10 -5 12 5 7 8 -4 6 -1 -3 7 -10 8 -15 17 -12 20 3 3 2 12 -2 19 -12 18
-14 39 -4 33 5 -3 11 -1 15 5 3 5 3 10 -2 10 -4 0 -9 14 -10 30 -1 17 2 28 7
25 5 -3 12 0 16 7 4 7 4 10 -1 6 -4 -4 -14 -3 -22 4 -11 9 -11 14 4 30 10 11
13 19 8 18 -20 -4 -35 0 -35 11 0 5 4 8 9 5 12 -8 8 13 -7 40 -9 17 -8 26 5
44 15 21 15 23 1 18 -12 -5 -14 -2 -10 14 3 13 1 19 -5 15 -6 -4 -9 4 -7 18 1
14 -2 22 -7 19 -6 -3 -7 5 -3 20 6 24 0 30 -26 28 -3 0 -7 9 -7 21 -2 17 0 19
7 7 8 -12 10 -10 10 8 0 12 -4 22 -10 22 -5 0 -10 5 -10 11 0 5 5 7 10 4 6 -3
10 1 10 9 0 9 -4 16 -10 16 -5 0 -10 7 -10 15 0 8 -4 15 -9 15 -5 0 -11 9 -14
19 -3 14 -1 18 9 14 8 -3 14 0 14 6 0 6 -4 11 -10 11 -5 0 -9 3 -9 8 3 18 -2
33 -9 28 -11 -6 -9 25 3 43 6 10 4 12 -5 6 -10 -6 -12 -4 -7 8 3 9 -1 23 -9
32 -12 11 -12 15 -2 15 10 0 10 2 -1 9 -7 5 -10 14 -7 20 4 6 3 11 -3 11 -6 0
-7 7 -4 17 4 9 2 14 -3 11 -5 -3 -16 1 -24 10 -13 14 -12 15 2 9 14 -5 16 -2
8 17 -5 13 -6 27 -2 32 4 4 1 4 -5 0 -9 -5 -13 1 -13 18 0 14 -5 26 -11 26 -7
0 -9 9 -6 21 4 16 2 19 -10 15 -13 -5 -14 -4 -4 8 9 11 9 16 0 22 -8 5 -9 3
-4 -6 5 -8 4 -11 -3 -7 -5 4 -9 18 -8 32 2 13 0 22 -4 20 -10 -6 -22 24 -15
36 4 5 -1 6 -9 3 -11 -4 -14 0 -11 15 2 12 -1 21 -7 21 -5 0 -8 7 -5 15 4 8 1
17 -5 21 -6 4 -8 3 -4 -4 3 -6 2 -13 -3 -16 -10 -6 -9 19 1 29 7 8 -14 55 -25
55 -5 0 -5 5 -2 10 3 6 1 10 -5 10 -6 0 -8 5 -5 10 3 6 1 10 -6 10 -8 0 -7 5
2 17 10 11 10 14 2 9 -8 -4 -13 -1 -13 9 0 10 -5 13 -12 9 -8 -5 -7 0 2 11 8
10 10 16 4 12 -7 -4 -15 0 -18 9 -3 8 -10 13 -15 10 -5 -3 -7 3 -4 14 3 11 0
20 -6 20 -6 0 -11 7 -11 15 0 8 -6 15 -12 15 -9 0 -8 3 2 10 12 7 11 12 -5 31
-12 14 -14 19 -5 14 8 -4 5 2 -7 14 -14 13 -20 27 -16 38 5 12 2 15 -9 10 -12
-4 -14 -1 -11 14 3 11 0 19 -6 19 -7 0 -9 5 -5 12 5 8 2 9 -10 5 -13 -5 -15
-3 -7 10 7 13 0 25 -31 55 -22 21 -36 38 -33 38 4 0 2 7 -5 15 -7 8 -9 15 -6
15 4 0 0 7 -9 16 -9 9 -14 23 -11 30 3 8 2 13 -2 12 -18 -4 -40 15 -35 30 5
11 2 14 -9 9 -14 -5 -15 -1 -8 24 5 17 5 27 0 24 -11 -7 -50 34 -50 53 0 9 -6
12 -15 8 -13 -4 -14 -2 -5 14 8 14 8 20 0 20 -6 0 -8 5 -5 10 3 6 -1 10 -10
10 -9 0 -13 4 -10 10 7 11 -10 47 -19 43 -3 -2 -12 -3 -18 -3 -9 0 -8 4 2 10
11 7 11 10 2 10 -7 0 -10 5 -7 10 3 6 1 10 -5 10 -6 0 -9 4 -6 9 4 5 1 11 -4
13 -6 2 -12 13 -13 26 0 12 -7 22 -14 22 -7 0 -10 6 -8 13 5 12 -52 53 -69 48
-5 -1 -3 5 4 14 11 14 11 16 -1 13 -8 -2 -14 4 -14 12 0 16 -36 58 -46 53 -10
-4 -20 27 -12 39 3 7 1 8 -5 4 -8 -5 -12 1 -12 16 0 18 -2 20 -10 8 -8 -13
-10 -13 -10 1 0 9 -9 23 -20 30 -12 8 -22 24 -23 36 0 12 -5 19 -9 17 -5 -3
-6 -10 -3 -15 3 -5 -1 -6 -9 -3 -9 3 -13 10 -10 15 3 5 -2 12 -10 15 -9 3 -16
10 -16 16 0 5 6 6 13 3 6 -4 4 0 -5 8 -10 8 -15 17 -11 20 3 4 0 7 -9 7 -8 0
-20 11 -26 25 -7 14 -20 29 -29 32 -23 9 -44 29 -37 36 3 3 -4 8 -15 12 -12 4
-18 12 -14 21 3 7 0 14 -7 14 -6 0 -8 5 -5 10 3 6 -2 10 -11 10 -10 0 -15 3
-11 6 7 8 -32 48 -56 57 -9 3 -17 14 -17 23 0 14 -2 15 -17 3 -10 -7 -15 -10
-11 -5 8 10 -14 36 -24 29 -5 -2 -8 3 -8 12 0 9 -4 13 -10 10 -5 -3 -10 1 -10
9 0 8 -5 18 -12 22 -7 5 -8 3 -3 -7 8 -12 6 -12 -8 0 -9 7 -17 20 -17 27 0 8
-6 14 -14 14 -8 0 -18 9 -21 20 -4 11 -10 18 -15 15 -4 -3 -10 4 -13 15 -3 13
-10 18 -21 14 -9 -3 -16 -1 -16 5 0 6 -6 11 -14 11 -8 0 -13 8 -11 18 4 27
-14 45 -32 30 -11 -9 -13 -8 -11 3 2 9 -4 13 -16 11 -10 -2 -15 1 -12 6 3 6
-1 13 -10 16 -10 4 -13 2 -8 -7 4 -6 -4 -1 -19 13 -57 55 -77 70 -92 70 -8 0
-15 8 -15 17 0 9 -3 13 -6 10 -4 -3 -16 -1 -28 5 -11 7 -25 11 -31 9 -5 -1 -7
0 -3 4 4 4 1 14 -7 21 -15 16 -29 19 -20 5 3 -5 0 -13 -6 -17 -7 -4 -9 -3 -6
3 4 6 -3 19 -15 29 -12 11 -18 13 -14 7 5 -9 2 -11 -8 -7 -9 3 -13 11 -9 17 4
6 0 8 -10 4 -10 -4 -17 -2 -17 4 0 6 -7 9 -15 6 -8 -4 -17 -2 -20 4 -4 5 -11
7 -16 3 -5 -3 -8 0 -7 7 2 7 -4 13 -12 14 -8 1 -14 6 -13 12 2 7 -6 10 -17 8
-11 -2 -20 0 -20 6 0 5 -10 9 -22 9 -14 0 -18 3 -12 8 9 5 8 11 -2 20 -11 10
-14 10 -14 0 -1 -7 -7 -2 -14 11 -11 20 -14 21 -19 7 -5 -11 -3 -15 5 -10 7 5
8 3 3 -5 -5 -9 -10 -10 -18 -2 -6 6 -20 11 -30 11 -10 0 -21 9 -24 20 -3 11
-10 20 -15 20 -5 0 -6 -6 -3 -12 4 -7 -1 -4 -9 6 -9 11 -16 16 -16 11 0 -4 -9
2 -20 15 -11 13 -20 18 -20 11 0 -7 -4 -9 -10 -6 -5 3 -10 0 -10 -7 0 -7 -6
-2 -13 11 -6 13 -20 25 -30 27 -9 1 -15 -2 -11 -7 3 -5 0 -9 -5 -9 -6 0 -11 4
-11 9 0 5 -7 12 -16 15 -8 3 -13 2 -10 -3 3 -5 -1 -12 -10 -15 -24 -9 -28 -7
-15 8 9 11 6 12 -15 8 -18 -3 -25 -1 -20 6 4 7 -1 10 -14 7 -11 -2 -24 3 -30
13 -8 15 -10 13 -10 -8 l-1 -25 -10 23 c-5 14 -13 20 -21 16 -8 -5 -9 -2 -5 9
4 10 2 16 -6 14 -7 -1 -11 4 -9 11 2 9 -2 11 -10 6 -19 -12 -37 -13 -44 -3 -3
6 -15 4 -30 -5 -21 -15 -23 -15 -17 1 5 13 2 15 -11 10 -9 -4 -15 -3 -11 2 3
5 0 13 -6 17 -6 3 -15 0 -20 -7 -6 -10 -9 -11 -9 -1 0 6 -9 12 -20 12 -11 0
-24 8 -27 17 -6 15 -7 15 -14 -3 -7 -19 -8 -19 -8 0 -1 19 -1 19 -14 1 -11
-14 -16 -15 -22 -5 -5 8 -4 11 2 7 5 -3 10 0 10 8 0 13 -2 13 -16 1 -11 -10
-22 -12 -31 -6 -8 5 -19 6 -25 2 -5 -3 -4 1 2 9 11 13 8 15 -19 11 -23 -4 -29
-2 -23 8 6 9 4 11 -4 6 -7 -5 -10 -15 -7 -25 5 -12 2 -11 -9 3 -8 11 -15 14
-15 8 0 -9 -5 -10 -19 -2 -24 12 -34 13 -26 1 3 -5 0 -13 -7 -17 -7 -4 -10 -4
-6 0 12 14 -15 35 -30 23 -7 -6 -12 -6 -11 -1 1 5 1 16 0 24 -1 13 -2 13 -12
0 -8 -12 -12 -12 -16 -2 -4 10 -9 9 -19 -5 -8 -10 -14 -13 -13 -8 3 24 -2 26
-18 8 -10 -10 -15 -14 -11 -8 12 19 -4 26 -17 8 -9 -13 -14 -13 -20 -3 -6 9
-4 11 5 5 9 -5 11 -4 6 4 -6 9 -11 9 -22 0 -11 -9 -14 -9 -14 0 0 7 -5 9 -10
6 -6 -4 -8 -11 -5 -16 3 -5 -1 -6 -9 -3 -9 3 -14 9 -12 13 2 3 -11 6 -30 6
-23 0 -33 -4 -30 -12 3 -7 -1 -10 -10 -6 -7 3 -14 9 -14 15 0 5 -7 2 -16 -6
-17 -17 -25 -20 -23 -8 4 21 -3 24 -17 6 -8 -10 -13 -14 -10 -7 4 6 2 14 -4
18 -5 3 -10 -1 -10 -9 0 -9 -4 -16 -10 -16 -5 0 -9 5 -7 12 1 7 -9 13 -25 13
-21 1 -25 -2 -16 -12 8 -10 7 -12 -6 -7 -9 3 -16 10 -16 16 0 5 -5 6 -10 3 -6
-4 -8 -11 -5 -16 3 -5 -1 -6 -9 -3 -16 6 -21 18 -16 39 1 5 -2 7 -5 3 -4 -4
-17 -3 -29 3 -19 9 -19 9 -4 -4 16 -12 14 -14 -12 -14 -20 0 -30 5 -30 16 0
11 -3 11 -16 -5 -8 -10 -12 -12 -8 -4 7 13 5 13 -9 2 -9 -8 -21 -11 -27 -7 -5
3 -10 -2 -10 -12 0 -15 -2 -16 -10 -3 -9 13 -14 7 -11 -12 0 -4 -6 -5 -14 -2
-8 4 -13 9 -11 13 3 4 -4 7 -14 7 -15 0 -17 -3 -7 -15 9 -11 4 -10 -17 3 -24
15 -28 16 -23 3 4 -11 2 -14 -9 -10 -7 3 -14 9 -14 15 0 5 -5 6 -10 3 -6 -4
-7 -12 -4 -18 4 -7 -4 -2 -18 11 -27 24 -29 36 -14 61 6 9 5 12 0 8 -5 -3 -10
3 -10 13 0 10 4 16 8 14 4 -3 8 0 8 5 0 6 -7 11 -16 11 -16 0 -46 24 -39 32 2
2 -5 10 -17 17 -11 7 -17 8 -13 2 3 -6 2 -11 -4 -11 -5 0 -13 10 -16 21 -4 12
-10 17 -14 12 -3 -6 -17 -14 -30 -18 -18 -5 -22 -4 -17 6 4 8 1 6 -7 -3 -8
-10 -18 -14 -23 -10 -4 4 -2 -1 6 -11 7 -10 9 -17 4 -16 -20 3 -45 -1 -41 -8
6 -11 -60 -73 -68 -65 -4 4 -5 2 -3 -3 3 -9 -6 -21 -60 -78 -16 -17 -16 -18 3
-12 16 6 17 5 5 -4 -8 -6 -24 -11 -35 -11 -17 0 -18 -2 -5 -11 12 -9 11 -10
-7 -6 -13 3 -23 0 -23 -6 0 -6 -3 -7 -7 -4 -3 4 -13 1 -21 -6 -11 -8 -14 -9
-9 0 5 8 1 11 -12 10 -11 0 -17 -5 -14 -11 4 -5 -1 -7 -10 -3 -10 4 -20 0 -26
-11 -13 -23 -20 -21 -38 8 -10 17 -12 19 -8 5 5 -15 3 -17 -6 -8 -6 6 -8 17
-3 24 4 7 9 24 10 37 2 13 14 34 28 47 14 13 26 29 26 35 0 6 6 8 13 4 7 -5 6
0 -3 11 -8 10 -10 16 -5 13 14 -8 38 19 25 27 -7 4 -4 17 7 35 9 16 21 26 27
23 5 -4 7 1 2 12 -6 15 -4 16 10 4 14 -11 15 -10 12 7 -2 11 2 18 9 17 7 -2
10 6 8 17 -2 11 1 20 6 20 6 0 7 5 4 10 -3 6 1 10 9 10 10 0 13 6 10 15 -4 11
1 15 17 16 13 0 19 3 12 5 -7 3 -9 12 -6 20 3 7 8 12 12 9 4 -2 8 2 8 10 0 8
-4 15 -9 15 -5 0 -6 6 -2 13 6 9 4 9 -8 -1 -14 -11 -16 -10 -14 12 2 14 -1 23
-5 20 -16 -10 -9 35 11 71 24 44 25 46 8 56 -10 7 -10 9 0 9 6 0 12 5 12 11 0
5 -4 7 -10 4 -5 -3 -10 -1 -10 4 0 6 5 11 11 11 5 0 7 5 3 12 -5 7 -2 9 8 6
11 -5 14 0 10 19 -3 17 -1 24 6 20 5 -4 13 0 16 9 3 8 2 12 -4 9 -6 -3 -7 1
-4 9 3 9 10 13 15 10 5 -3 9 -1 9 5 0 5 -8 12 -17 14 -17 4 -17 5 -1 6 11 1
15 6 12 16 -4 8 -10 12 -15 9 -5 -3 -6 2 -3 10 3 8 12 17 21 20 9 4 13 13 9
24 -4 11 0 10 14 -7 11 -12 18 -27 15 -31 -3 -5 1 -11 7 -13 10 -4 10 -6 1 -6
-7 -1 -13 -9 -13 -18 0 -15 2 -16 10 -3 6 9 10 10 10 3 0 -7 -8 -17 -17 -22
-17 -10 -17 -10 0 -11 20 0 22 -11 5 -28 -9 -9 -9 -12 0 -12 9 0 10 -5 4 -17
-5 -10 -8 -28 -6 -41 3 -14 0 -21 -6 -17 -15 9 -12 -2 6 -19 11 -12 12 -16 2
-16 -7 0 -2 -7 10 -16 19 -13 21 -18 10 -32 -10 -12 -10 -14 0 -8 6 4 12 2 12
-3 0 -6 -6 -11 -12 -11 -7 -1 -1 -8 15 -16 30 -17 36 -26 10 -17 -12 3 -10 -1
5 -12 13 -9 26 -15 29 -11 3 3 13 -4 23 -16 13 -17 29 -21 78 -23 33 0 58 3
56 7 -3 4 0 8 5 8 6 0 11 -6 11 -12 0 -9 4 -8 10 2 6 10 10 11 10 3 0 -7 5
-13 12 -13 6 0 8 3 5 7 -4 3 8 17 25 30 18 12 27 23 21 23 -6 0 -9 9 -6 20 4
15 0 20 -16 20 -11 0 -21 5 -21 11 0 5 -5 7 -10 4 -6 -4 -7 -11 -4 -17 4 -7 0
-7 -13 1 -14 7 -23 7 -30 0 -8 -8 -13 -7 -18 2 -6 8 -4 10 5 4 9 -5 11 -4 6 4
-5 8 -12 9 -20 2 -7 -6 -17 -6 -26 -1 -8 6 -10 10 -5 10 6 0 3 4 -5 10 -9 5
-19 5 -27 -2 -12 -10 -18 0 -14 25 1 5 -3 6 -9 2 -5 -3 -10 -1 -10 5 0 6 -4 8
-10 5 -5 -3 -10 -1 -10 4 0 23 -2 26 -23 38 -20 11 -20 12 -3 13 15 0 16 3 6
15 -10 12 -9 15 6 16 18 0 18 1 -1 9 -13 6 -15 9 -5 9 13 1 13 2 0 11 -12 8
-12 10 5 11 l20 0 -20 9 c-12 5 -14 9 -6 9 11 1 10 6 -4 21 -15 17 -16 20 -3
15 19 -8 33 11 17 21 -8 5 -9 3 -4 -6 5 -8 4 -11 -3 -7 -5 4 -8 16 -5 27 3 11
10 17 16 13 6 -3 7 -1 3 6 -4 6 -11 9 -15 7 -3 -3 -7 4 -7 15 0 10 7 19 14 19
9 0 6 8 -9 21 -17 15 -19 19 -7 15 19 -6 21 13 3 26 -5 4 -1 8 10 8 16 0 17 2
5 9 -8 6 -18 7 -24 4 -5 -3 -6 -1 -2 6 4 6 11 9 15 6 5 -2 7 7 5 21 -2 21 0
23 12 13 12 -10 13 -9 8 6 -4 10 -1 21 7 26 11 6 11 9 1 9 -10 0 -10 5 -1 21
8 15 8 19 0 15 -10 -6 -16 20 -12 47 0 4 -2 6 -6 6 -20 -3 -26 2 -13 11 11 7
11 10 2 10 -7 0 -25 14 -39 30 -20 24 -28 28 -39 19 -8 -6 -14 -7 -14 -2 0 5
-9 9 -19 9 -11 0 -18 -3 -15 -7z m-1322 -905 c3 -8 2 -12 -4 -9 -6 3 -10 10
-10 16 0 14 7 11 14 -7z m73 -204 c-2 -23 -10 -17 -12 10 -1 10 2 17 6 14 4
-2 7 -13 6 -24z m2137 2 c3 -5 -1 -9 -9 -9 -8 0 -12 4 -9 9 3 4 7 8 9 8 2 0 6
-4 9 -8z m-4631 -409 c-5 -12 -2 -15 10 -10 11 4 17 1 17 -7 0 -15 16 -16 39
-2 10 6 12 5 7 -2 -8 -13 6 -17 18 -5 10 11 37 12 30 2 -3 -5 -10 -6 -16 -3
-7 4 -8 2 -4 -4 5 -9 13 -9 27 -2 11 6 23 8 28 5 5 -3 12 1 14 7 3 7 6 4 6 -6
1 -20 1 -20 17 0 8 10 12 13 9 6 -8 -16 26 -13 37 3 4 6 8 2 8 -8 0 -10 5 -15
10 -12 6 3 10 1 10 -4 0 -6 5 -11 11 -11 5 0 7 6 4 13 -4 6 1 3 9 -7 11 -13
16 -15 16 -6 0 9 6 8 22 -6 19 -16 20 -16 9 -1 -18 23 -11 29 13 11 11 -8 16
-14 12 -14 -5 0 -2 -8 5 -17 8 -9 9 -14 2 -10 -6 4 -19 0 -27 -9 -10 -10 -16
-11 -16 -3 0 8 -5 8 -17 -2 -9 -8 -14 -9 -10 -3 4 7 0 14 -8 17 -8 4 -12 1 -9
-6 2 -7 -3 -13 -13 -14 -36 -3 -69 -9 -81 -17 -7 -4 -12 -3 -12 2 0 14 -36 7
-54 -11 -20 -20 -40 -23 -31 -4 4 6 0 4 -8 -5 -10 -12 -17 -14 -24 -7 -8 8
-13 5 -18 -10 -3 -12 -11 -21 -16 -21 -6 0 -7 4 -4 10 3 6 -1 7 -9 4 -9 -3
-14 -9 -11 -14 2 -4 -7 -12 -20 -18 -17 -8 -25 -8 -25 -1 0 6 -5 7 -10 4 -6
-4 -8 -10 -5 -15 3 -5 1 -11 -5 -15 -5 -3 -10 -1 -10 5 0 6 -5 8 -10 5 -6 -4
-7 -12 -3 -18 4 -7 -2 -5 -12 3 -10 8 -16 10 -12 4 4 -7 0 -17 -8 -24 -13 -11
-15 -10 -9 6 5 18 5 18 -10 0 -15 -19 -16 -19 -16 -1 0 18 0 18 -13 0 -10 -13
-16 -15 -21 -6 -6 9 -11 9 -22 0 -7 -6 -11 -15 -8 -20 3 -5 -2 -9 -11 -9 -10
0 -13 5 -9 13 6 9 3 8 -8 -1 -9 -8 -14 -21 -11 -30 4 -15 3 -15 -6 -2 -9 13
-12 13 -20 1 -7 -11 -10 -9 -16 9 -7 21 -8 21 -17 6 -5 -9 -13 -14 -19 -11 -5
4 -9 1 -9 -5 0 -7 -7 -10 -15 -6 -8 3 -14 0 -12 -6 1 -6 -4 -13 -10 -15 -8 -3
-13 3 -13 13 0 16 -1 16 -16 -2 -8 -10 -13 -14 -10 -7 5 8 0 8 -19 0 -14 -7
-25 -15 -25 -19 0 -5 -5 -8 -11 -8 -5 0 -7 5 -3 12 4 7 3 8 -4 4 -7 -4 -12
-14 -12 -22 0 -10 -5 -12 -12 -7 -19 11 -39 13 -32 2 3 -5 9 -7 13 -5 4 3 8
-1 8 -9 0 -11 -4 -12 -13 -4 -7 6 -18 8 -23 5 -5 -4 -13 -1 -17 5 -5 8 -3 9 6
4 9 -5 11 -4 6 4 -6 9 -11 9 -21 1 -8 -6 -19 -10 -27 -9 -29 3 -49 -2 -43 -11
3 -5 1 -11 -4 -11 -6 -1 -15 -3 -21 -4 -5 -1 -17 -3 -26 -4 -8 0 -13 -5 -10
-10 3 -5 -1 -12 -10 -15 -9 -3 -12 -2 -9 5 4 6 1 10 -6 8 -27 -3 -40 1 -34 11
4 6 -1 7 -12 3 -15 -6 -16 -4 -6 9 7 8 10 18 6 22 -4 4 0 4 9 1 11 -4 18 0 23
14 3 11 12 20 18 18 7 -1 11 8 10 23 l-3 25 10 -23 c10 -23 10 -23 51 20 23
24 45 42 50 40 5 -1 8 1 8 5 -3 21 2 33 14 31 6 -2 11 5 11 14 -1 10 4 14 12
11 8 -3 17 2 20 11 5 14 9 14 22 4 13 -11 14 -11 7 1 -6 11 -4 13 7 8 12 -4
15 0 11 16 -4 18 -3 19 6 7 9 -13 15 -8 13 11 -1 4 8 9 18 12 11 3 20 0 21 -6
0 -7 4 -2 9 11 5 12 14 22 20 22 6 0 8 5 5 10 -3 6 1 10 10 10 9 0 14 -4 11
-8 -3 -5 1 -9 8 -9 8 0 12 6 9 13 -3 9 2 11 16 7 19 -5 26 4 23 28 -1 4 8 4
20 1 13 -3 19 -1 15 5 -4 6 0 14 9 17 10 4 13 2 8 -6 -5 -7 -2 -9 8 -6 8 4 21
2 29 -3 9 -5 22 -3 36 6 27 18 33 19 33 4 0 -5 -5 -7 -12 -3 -7 4 -8 3 -4 -5
6 -8 12 -9 20 -2 7 6 16 7 20 3 4 -4 6 0 4 8 -1 8 3 14 10 13 6 -2 12 3 12 10
0 8 4 7 10 -3 5 -8 10 -10 10 -5 0 6 11 11 25 11 14 1 25 -2 25 -6 0 -4 7 -11
16 -14 14 -5 15 -4 4 9 -11 13 -10 14 3 10 8 -4 18 -2 22 4 10 17 15 13 8 -6z
m1392 8 c-3 -5 -1 -12 4 -16 5 -3 14 3 20 12 10 17 10 17 11 -2 0 -17 2 -17
10 -5 9 13 10 13 10 0 0 -13 1 -13 10 0 7 11 10 11 10 2 0 -7 4 -11 9 -8 5 3
12 -1 15 -10 5 -13 9 -14 22 -3 8 7 14 8 13 3 -4 -22 2 -34 19 -34 16 -1 16
-1 -1 -11 -14 -8 -16 -14 -6 -25 9 -11 9 -14 0 -14 -7 0 -9 -4 -6 -10 6 -9 -8
-14 -29 -11 -4 1 -15 -4 -23 -10 -8 -7 -13 -8 -12 -3 4 21 -2 28 -11 14 -6
-10 -10 -11 -10 -2 0 6 -5 12 -12 12 -6 0 -8 -3 -5 -7 4 -3 -3 -13 -14 -21
-18 -12 -23 -13 -30 -1 -7 12 -12 12 -31 0 -21 -13 -22 -13 -10 2 9 10 10 17
2 22 -5 3 -10 0 -10 -7 0 -10 -2 -10 -9 1 -6 8 -14 10 -22 5 -23 -14 -39 -13
-39 2 0 9 -4 13 -9 9 -5 -3 -11 3 -13 12 -3 18 31 60 45 56 4 -2 6 3 5 10 -2
6 5 11 15 11 13 -1 15 2 8 10 -7 9 -2 12 20 11 16 0 29 -3 29 -7 0 -5 5 -8 10
-8 6 0 9 3 9 8 -2 12 1 22 7 22 3 0 3 -4 -1 -9z m-1605 -27 c0 -8 -19 -13 -24
-6 -3 5 1 9 9 9 8 0 15 -2 15 -3z m1775 -64 c3 -6 -1 -7 -9 -4 -18 7 -21 14
-7 14 6 0 13 -4 16 -10z m-2175 -359 c0 -5 -7 -12 -16 -15 -14 -5 -15 -4 -4 9
14 17 20 19 20 6z m8035 -1091 c3 -5 1 -10 -4 -10 -6 0 -11 5 -11 10 0 6 2 10
4 10 3 0 8 -4 11 -10z m-9055 -254 c0 -2 -7 -7 -16 -10 -8 -3 -12 -2 -9 4 6
10 25 14 25 6z m-602 -1761 c-3 -3 -9 2 -12 12 -6 14 -5 15 5 6 7 -7 10 -15 7
-18z m-3 -94 c3 -5 2 -12 -3 -15 -5 -3 -9 1 -9 9 0 17 3 19 12 6z m190 -1321
c3 -5 1 -10 -4 -10 -6 0 -11 5 -11 10 0 6 2 10 4 10 3 0 8 -4 11 -10z m8835
-1653 c0 -2 -10 -12 -22 -23 l-23 -19 19 23 c18 21 26 27 26 19z m-130 -131
c0 -2 -8 -10 -17 -17 -16 -13 -17 -12 -4 4 13 16 21 21 21 13z m-6510 -886 c0
-5 -2 -10 -4 -10 -3 0 -8 5 -11 10 -3 6 -1 10 4 10 6 0 11 -4 11 -10z m3300
-534 c0 -3 -4 -8 -10 -11 -5 -3 -10 -1 -10 4 0 6 5 11 10 11 6 0 10 -2 10 -4z"/>
<path d="M4110 9059 c0 -5 5 -7 10 -4 6 3 10 8 10 11 0 2 -4 4 -10 4 -5 0 -10
-5 -10 -11z"/>
<path d="M5835 9000 c-3 -5 -1 -10 4 -10 6 0 11 5 11 10 0 6 -2 10 -4 10 -3 0
-8 -4 -11 -10z"/>
<path d="M6303 8915 c0 -8 4 -12 9 -9 5 3 6 10 3 15 -9 13 -12 11 -12 -6z"/>
<path d="M4959 8593 c-13 -16 -12 -17 4 -4 16 13 21 21 13 21 -2 0 -10 -8 -17
-17z"/>
<path d="M8195 8520 c3 -5 8 -10 11 -10 2 0 4 5 4 10 0 6 -5 10 -11 10 -5 0
-7 -4 -4 -10z"/>
<path d="M1915 8090 c-3 -5 -1 -10 4 -10 6 0 11 5 11 10 0 6 -2 10 -4 10 -3 0
-8 -4 -11 -10z"/>
<path d="M1875 8080 c-3 -5 -1 -10 4 -10 6 0 11 5 11 10 0 6 -2 10 -4 10 -3 0
-8 -4 -11 -10z"/>
<path d="M9340 7486 c0 -3 9 -10 20 -16 11 -6 20 -8 20 -6 0 3 -9 10 -20 16
-11 6 -20 8 -20 6z"/>
<path d="M9535 7180 c3 -5 8 -10 11 -10 2 0 4 5 4 10 0 6 -5 10 -11 10 -5 0
-7 -4 -4 -10z"/>
<path d="M270 3239 c0 -5 5 -7 10 -4 6 3 10 8 10 11 0 2 -4 4 -10 4 -5 0 -10
-5 -10 -11z"/>
<path d="M530 2666 c0 -2 7 -7 16 -10 8 -3 12 -2 9 4 -6 10 -25 14 -25 6z"/>
<path d="M7926 972 c-3 -5 1 -9 9 -9 8 0 12 4 9 9 -3 4 -7 8 -9 8 -2 0 -6 -4
-9 -8z"/>
<path d="M3931 304 c0 -11 3 -14 6 -6 3 7 2 16 -1 19 -3 4 -6 -2 -5 -13z"/>
</g>
</svg>
